<?xml version="1.0" standalone="no"?>
<!DOCTYPE svg PUBLIC "-//W3C//DTD SVG 20010904//EN"
 "http://www.w3.org/TR/2001/REC-SVG-20010904/DTD/svg10.dtd">
<svg version="1.0" xmlns="http://www.w3.org/2000/svg"
 width="299.000000pt" height="168.000000pt" viewBox="0 0 299.000000 168.000000"
 preserveAspectRatio="xMidYMid meet">
<metadata>
Created by potrace 1.15, written by Peter Selinger 2001-2017
</metadata>
<g transform="translate(0.000000,168.000000) scale(0.100000,-0.100000)"
fill="#000000" stroke="none">
<path d="M900 1570 c-107 -17 -232 -59 -559 -186 -69 -27 -79 -34 -135 -106
-44 -56 -67 -78 -84 -78 -20 0 -22 -4 -17 -32 3 -18 34 -231 70 -473 59 -397
76 -502 90 -572 l5 -22 58 20 c94 33 387 116 538 153 229 56 334 69 579 71
l220 2 95 39 95 39 503 0 c478 0 503 1 508 18 4 12 -2 28 -16 42 l-21 23 29
118 29 119 -66 85 c-36 47 -173 220 -305 385 l-239 300 -101 6 c-56 4 -163 17
-240 29 -108 17 -165 21 -260 18 -140 -6 -198 -24 -302 -93 l-65 -44 -39 43
c-77 83 -220 120 -370 96z m215 -25 c32 -9 79 -30 104 -48 44 -31 56 -53 251
-445 113 -227 205 -412 205 -412 0 0 -23 9 -51 19 -69 27 -211 40 -319 31
-170 -14 -269 -41 -525 -140 -224 -87 -310 -114 -320 -104 -9 10 -10 16 -90
496 -33 196 -60 365 -60 376 0 11 8 22 18 25 9 3 73 31 142 62 141 64 329 130
410 144 86 14 171 12 235 -4z m840 -17 c72 -11 171 -23 222 -27 l92 -6 217
-270 c119 -148 250 -314 291 -367 l74 -98 -73 0 c-40 0 -149 9 -243 20 -371
43 -579 15 -759 -105 -57 -38 -59 -38 -73 -19 -32 41 -374 747 -369 760 8 21
121 91 178 110 114 38 214 38 443 2z m-1605 -677 l74 -435 -49 -94 c-43 -83
-50 -91 -57 -71 -5 18 -126 799 -141 910 -2 20 84 142 93 132 4 -5 40 -203 80
-442z m2155 -100 c94 -11 207 -23 253 -26 70 -6 82 -10 78 -24 -3 -9 -15 -55
-27 -103 l-21 -88 -47 0 c-25 0 -120 5 -211 10 -233 15 -523 15 -599 1 -64
-12 -146 -46 -189 -77 l-22 -17 15 29 c19 36 19 81 0 114 -8 14 -14 28 -15 32
-1 17 131 90 203 114 177 56 321 64 582 35z m-937 -106 c35 -8 72 -20 83 -25
18 -10 17 -13 -15 -40 -44 -39 -59 -77 -54 -139 l3 -49 -145 5 c-219 9 -368
-18 -854 -151 -132 -36 -241 -64 -244 -62 -2 3 24 54 57 114 l61 109 63 18
c34 9 170 55 302 102 341 120 392 132 550 132 81 1 154 -5 193 -14z"/>
</g>
</svg>
